<?xml version="1.0" encoding="UTF-8"?><svg id="Stop_and_Think" xmlns="http://www.w3.org/2000/svg" viewBox="0 0 1000 1000"><defs><style>.cls-1{stroke:#000;stroke-miterlimit:10;stroke-width:5px;}</style></defs><g id="Silhouette"><path class="cls-1" d="M666.46,720.3c-35.03.16-68.43-11.54-95.68-32.24-11.98-9.3-23.06-15.65-36.08-8.18-2.31,1.33-4.39,3.02-6.31,4.88-79.04,76.23-207.31,59.72-253.03-41.53-6-12.14-14.24-19.13-28.33-16.47-6.13.97-12.47,3.06-18.49,4.57-85.92,21.93-182.6-36.57-185.37-129.14-1.13-31.82,9.34-61.86,30.67-86.48,12.93-15.46,26.57-22.29,14.49-43.8-27.05-45.32-28.4-96.64,3.49-139.9,32.27-46.26,82.23-68.74,142.05-62.95,7.94.67,17.78,1.45,24.28-2.14,9.26-4.57,12.41-16.16,15.37-25.65,8.36-27.46,25.75-50.83,48.87-67.76,67.05-49.84,160.93-39.04,212.99,23.21,4.04,4.75,8.05,10.02,12.64,14.35,14.93,15.35,32.25.7,47.67-6.09,101.29-48.98,226.91,24.08,216.64,134.19-.13,1.44-.21,2.9-.15,4.35.86,20.3,16.93,21.72,34.01,25.93,145.73,38.37,147.26,220.18,4.4,261.95-6.95,2.03-15.46,3.82-22.19,6.38-9.35,3.56-13.44,8.25-13.77,18.37-.16,5.61.51,11.54,1.01,17.32,8.2,81.53-68.15,147.73-148.97,146.83h-.2Z"/><path class="cls-1" d="M299.83,743.5c47.09-.53,81.29,46.79,64.89,91.15-10.58,30.01-43.12,49.77-74.66,44.7-44.89-5.79-72.62-55.36-53.2-96.05,10.97-24.18,35.9-39.84,62.69-39.8h.28Z"/><path class="cls-1" d="M164.5,882.06c-.15,22.78-20.38,42.49-43.15,41.84-26.54-.17-48.26-27.38-40.9-53.24,14.08-48.23,83.26-39.67,84.05,11.14v.25Z"/></g></svg>